<?xml version='1.0' encoding='iso-8859-1'?>
<svg version="1.1" xmlns="http://www.w3.org/2000/svg" viewBox="0 0 490 490" xmlns:xlink="http://www.w3.org/1999/xlink" enable-background="new 0 0 490 490">
  <g>
    <g fill="#010101">
      <path d="m490,129.3c0-0.773-0.107-1.545-0.304-2.298-0.438-2.319-1.633-4.501-3.996-6.102-1.556-1.004-3.137-1.503-4.717-1.625l-167.183-60.875-7.3,19.8 142.038,51.822-203.63,74.244-204.208-74.966 142.8-51.1-6.3-18.8-168.211,59.898c-1.605,0.112-3.21,0.632-4.789,1.702-0.592,0.563-1.178,1.229-1.722,1.954-1.539,1.766-2.478,4.039-2.478,6.346v259.5c0,4.2 3.1,8.4 7.3,9.4l231.305,84.299c0.032,0.032 0.063,0.069 0.095,0.101 1.413,0.74 2.826,1.427 4.24,1.803 0.692,0.291 1.398,0.297 2.06,0.297 0.611,0 1.259-0.003 1.899-0.254 1.459-0.358 2.905-1.048 4.301-1.746 0.117-0.111 0.232-0.239 0.348-0.357l231.052-84.243c4.2-1.1 7.3-5.2 7.3-9.4v-258.141c0.061-0.417 0.1-0.837 0.1-1.259zm-469.1,14.6l213.6,78.163v237.6l-213.6-78.163v-237.6zm448.2,237.7l-213.7,78.2v-237.7l213.7-78.2v237.7z"/>
      <path d="M171,103.2l-8.3,18.8l78.1,36.5c1.1,1,3.2,1,4.2,1s3.1-1,4.1-1l78.2-36.5l-8.3-18.8l-63.6,29.565    V5.3h-20.8v127.465L171,103.2z"/>
    </g>
  </g>
</svg>
