<?xml version="1.0" encoding="iso-8859-1"?>
<!-- Generator: Adobe Illustrator 19.0.0, SVG Export Plug-In . SVG Version: 6.00 Build 0)  -->
<svg version="1.1" id="Capa_1" xmlns="http://www.w3.org/2000/svg" xmlns:xlink="http://www.w3.org/1999/xlink" x="0px" y="0px"
	 viewBox="0 0 508.1 508.1" style="enable-background:new 0 0 508.1 508.1;" xml:space="preserve">
<g>
	<g>
		<g>
			<path d="M508.05,307.2V200.8l-58.3-14.6c-2.6-7.5-5.8-15.1-9.4-22.6l30.9-51.6l-75.2-75.2l-51.6,30.9c-7.5-3.7-15.1-6.8-22.6-9.4
				L307.25,0h-106.4l-14.6,58.3c-7.5,2.6-15.1,5.8-22.6,9.5l-51.6-31L36.85,112l30.9,51.6c-3.7,7.5-6.8,15.1-9.4,22.6l-58.3,14.6
				v106.5l58.3,14.6c2.6,7.5,5.8,15.1,9.4,22.6L36.85,396l75.3,75.3l51.6-30.9c7.5,3.7,15,6.8,22.6,9.4l14.6,58.3h106.5l14.6-58.3
				c7.5-2.6,15.1-5.8,22.6-9.4l51.6,30.9l75.3-75.3l-30.9-51.6c3.7-7.5,6.8-15.1,9.4-22.6L508.05,307.2z M450.55,393.4l-57.1,57.1
				l-48.4-29l-4.1,2.1c-9.5,4.9-19.1,8.9-28.6,11.9l-4.4,1.4l-13.7,54.6h-80.8l-13.4-54.6l-4.4-1.4c-9.5-3.1-19.1-7.1-28.6-11.9
				l-4.1-2.1l-48.4,29l-57.1-57.1l29-48.4l-2.1-4.1c-4.9-9.5-8.9-19.1-11.9-28.6l-1.4-4.4l-54.6-13.7v-80.8l54.7-13.4l1.4-4.4
				c3-9.4,7-19.1,11.9-28.6l2.1-4.1l-29-48.4l57.1-57.1l48.4,29l4.1-2.1c9.5-4.9,19.1-8.9,28.6-11.9l4.4-1.4l13.7-54.6h80.8
				l13.4,54.7l4.4,1.4c9.5,3,19.1,7.1,28.6,11.9l4.1,2.1l48.4-29l57.1,57.1l-29,48.4l2.1,4.1c4.9,9.5,8.9,19.1,11.9,28.6l1.4,4.4
				l54.6,13.7v80.8l-54.7,13.4l-1.4,4.4c-3,9.4-7,19.1-11.9,28.6l-2.1,4.1L450.55,393.4z"/>
			<path d="M254.05,89.3c-90.8,0-164.7,73.9-164.7,164.7s73.9,164.7,164.7,164.7s164.7-73.9,164.7-164.7S344.85,89.3,254.05,89.3z
				 M254.05,402.2c-81.7,0-148.2-66.5-148.2-148.2s66.5-148.2,148.2-148.2s148.2,66.5,148.2,148.2S335.75,402.2,254.05,402.2z"/>
			<rect x="238.85" y="31.6" width="32.9" height="16.5"/>
			<rect x="238.85" y="459.9" width="32.9" height="16.5"/>
			<rect x="461.25" y="237.5" width="16.5" height="32.9"/>
			<rect x="32.95" y="237.5" width="16.5" height="32.9"/>
			<rect x="398.51" y="86.1" transform="matrix(0.7071 -0.7071 0.7071 0.7071 46.6234 317.6593)" width="16.5" height="32.9"/>
			
				<rect x="87.552" y="397.156" transform="matrix(-0.7071 -0.7071 0.7071 -0.7071 -109.1232 765.611)" width="32.9" height="16.5"/>
			
				<rect x="398.43" y="388.966" transform="matrix(-0.7071 -0.7071 0.7071 -0.7071 407.5755 979.6541)" width="16.5" height="32.9"/>
			<rect x="95.76" y="86.155" transform="matrix(0.7071 0.7071 -0.7071 0.7071 103.0166 -43.4939)" width="16.5" height="32.9"/>
			<path d="M234.75,154.7l-12.4-7.2v42.9l-16.5,5.5l-16.5-5.5v-42.9l-12.4,7.2c-17.8,10.3-28.8,29.4-28.8,49.9
				c0,21.2,11.5,40.4,29.9,50.5l-9,76.2c-1.5,12.6,2.3,24.9,10.3,34c7,7.9,16.4,12.2,26.5,12.2c10.1,0,19.4-4.3,26.5-12.2
				c8-9,11.8-21.4,10.3-34l-9-76.2c18.3-10.1,29.9-29.3,29.9-50.5C263.55,184.1,252.55,165,234.75,154.7z M221.75,242.6l-5.7,2.4
				l10.4,88.2c0.9,7.9-1.4,15.6-6.3,21.1c-7.7,8.7-20.6,8.7-28.3,0c-4.9-5.5-7.2-13.2-6.3-21.1l10.4-88.2l-5.7-2.4
				c-15.4-6.4-25.4-21.3-25.4-38c0-9,3-17.6,8.2-24.6v22.3l32.9,11l32.9-11V180c5.3,7,8.2,15.6,8.2,24.6
				C247.15,221.3,237.15,236.2,221.75,242.6z"/>
			<path d="M348.25,204.6l-12.4-49.4h-45.8l-12.4,49.4h10.6v57.6h-8.2v82.4c0,18.2,14.8,32.9,32.9,32.9c18.2,0,32.9-14.8,32.9-32.9
				v-82.4h-8.2v-57.6H348.25z M329.45,344.6c0,9.1-7.4,16.5-16.5,16.5c-9.1,0-16.5-7.4-16.5-16.5v-65.9h8.2v-90.6h-5.9l4.1-16.5
				h20.2l4.1,16.5h-5.9v90.6h8.2V344.6z"/>
		</g>
	</g>
</g>
<g>
</g>
<g>
</g>
<g>
</g>
<g>
</g>
<g>
</g>
<g>
</g>
<g>
</g>
<g>
</g>
<g>
</g>
<g>
</g>
<g>
</g>
<g>
</g>
<g>
</g>
<g>
</g>
<g>
</g>
</svg>
